<?xml version="1.0" encoding="UTF-8"?>
<svg id="Layer_1" data-name="Layer 1" xmlns="http://www.w3.org/2000/svg" xmlns:xlink="http://www.w3.org/1999/xlink" viewBox="0 0 577.15 261.38">
  <defs>
    <style>
      .cls-1, .cls-2 {
        fill: #f15a29;
      }

      .cls-3 {
        fill: #532e89;
      }

      .cls-2, .cls-4 {
        stroke: #fff;
        stroke-miterlimit: 10;
        stroke-width: 2px;
      }

      .cls-5 {
        fill: #fff;
        font-family: Athletic, Athletic;
        font-size: 87.58px;
      }

      .cls-4 {
        fill: none;
      }
    </style>
  </defs>
  <image width="1200" height="883" transform="translate(222.37) scale(.3)" xlink:href="ClemsonWins.webp"/>
  <rect class="cls-3" width="232.42" height="127.45"/>
  <rect class="cls-1" x=".81" y="126.93" width="231.61" height="134.45"/>
  <g>
    <image width="1200" height="1176" transform="translate(13.61 23.56) scale(.07)" xlink:href="furmanlogo.png"/>
    <path class="cls-4" d="M14.04,63.73s25.82-2.23,37.9-32.35l1.84-7.26,1.86,8.15s5.26,22.57,35.37,30.72l2.05.74-2.83.85s-18.51,5.37-24.07,13.32c0,0-11.59,12.63-11.89,22.77l-.5,2.52-.7-2.98s-3.85-19.97-23.03-30.76c-2.74-1.54-5.79-2.89-9.19-3.98l-6.82-1.75Z"/>
  </g>
  <path class="cls-2" d="M17.21,184.99s-5.08-3.55-1.28-12.31,16.72-12.31,16.72-12.31c0,0,6.26-2.4,10.31,2.35s1.13,10.96,1.13,10.96l-1.28,4.49s-1.95,4.43-4.87,6.05c0,0-3.33,2.71-9.33,3.23,0,0-8.77,1.2-11.38-2.45Z"/>
  <path class="cls-2" d="M69,155.05s6.15,2.87,2.2,12.47-5.18,10.38-5.18,10.38c0,0-1.44,5.16-10.31,5.32-8.87.16-9.69-9.03-9.69-9.03,0,0-1.9-4.8,3.54-11.74s10.97-8.19,10.97-8.19c0,0,5.33-.99,8.46.78Z"/>
  <path class="cls-2" d="M71.74,174.61s9.46-8.69,16.5-4.89c7.04,3.8,5.58,10.45,5.58,10.45,0,0-1,6.85-5.58,10.49-4.58,3.64-6.96,4.25-6.96,4.25,0,0-9.61,2.05-13.35-2.6-3.73-4.66-2.5-9.63-2.5-9.63,0,0,1.95-4.89,6.31-8.06Z"/>
  <path class="cls-2" d="M62.18,211.65s-.1-10.9,9.38-12.57c0,0,17.28-3.08,19.59,5.27s-4.15,13.2-4.15,13.2c0,0-5.74,6.63-9.18,7.77s-15.74,3.55-15.64-13.67Z"/>
  <path class="cls-2" d="M20.36,219.45s15.08,16.36,23.31,14.32l1.27-.35s1.38-2.66,1.88-2.31.69.16.69.16c0,0,0,.63-.62.82l-.08,1.37s.12.59.88.86h6.61s7.19-.39,8.27-13.38c0,0-4-9.18-.67-19.3,0,0,3.38-9.8-4.82-14,0,0-14.26-2.07-23.9,1.43l-11.08,1.41s-10.87.99-8.05,18.16c0,0,1.03,6.57,6.28,10.83Z"/>
  <text class="cls-5" transform="translate(126.49 103.19) scale(.83 1)"><tspan x="0" y="0">14</tspan></text>
  <text class="cls-5" transform="translate(116.21 231.83) scale(.83 1)"><tspan x="0" y="0">63</tspan></text>
</svg>