<?xml version="1.0" encoding="UTF-8"?>
<svg id="Layer_1" data-name="Layer 1" xmlns="http://www.w3.org/2000/svg" viewBox="0 0 213.05 224.06">
  <defs>
    <style>
      .cls-1 {
        fill: #532e89;
      }

      .cls-1, .cls-2 {
        stroke: #231f20;
        stroke-miterlimit: 10;
      }

      .cls-2 {
        fill: #f15a29;
      }
    </style>
  </defs>
  <g>
    <polygon class="cls-1" points=".5 89.84 106.69 .65 212.55 89.84 212.55 109.76 195.95 109.76 196.69 223.56 131.42 223.56 131.78 158.8 81.63 159.17 81.63 223.56 16.36 223.56 16.36 109.76 .5 109.76 .5 89.84"/>
    <g>
      <path class="cls-2" d="M59.72,80.08s-7.16-4.92-1.81-17.06c5.35-12.15,23.57-17.06,23.57-17.06,0,0,8.82-3.33,14.53,3.25,5.71,6.58,1.59,15.18,1.59,15.18l-1.81,6.22s-2.75,6.15-6.87,8.39c0,0-4.7,3.76-13.16,4.48,0,0-12.36,1.66-16.05-3.4Z"/>
      <path class="cls-2" d="M132.75,38.57s8.68,3.98,3.11,17.28c-5.57,13.3-7.3,14.39-7.3,14.39,0,0-2.02,7.16-14.53,7.38s-13.67-12.51-13.67-12.51c0,0-2.68-6.65,4.99-16.27,7.66-9.62,15.47-11.35,15.47-11.35,0,0,7.52-1.37,11.93,1.08Z"/>
      <path class="cls-2" d="M136.61,65.69s13.34-12.04,23.26-6.78c9.92,5.26,7.86,14.48,7.86,14.48,0,0-1.41,9.49-7.86,14.53-6.45,5.04-9.82,5.89-9.82,5.89,0,0-13.56,2.85-18.82-3.61s-3.52-13.34-3.52-13.34c0,0,2.75-6.78,8.89-11.17Z"/>
      <path class="cls-2" d="M123.13,117.03s-.14-15.11,13.23-17.43c0,0,24.37-4.27,27.62,7.3,3.25,11.57-5.86,18.29-5.86,18.29,0,0-8.1,9.18-12.94,10.77-4.84,1.59-22.2,4.92-22.05-18.94Z"/>
      <path class="cls-2" d="M64.16,127.84s21.26,22.67,32.86,19.85l1.79-.49s1.95-3.69,2.66-3.2.98.22.98.22c0,0,0,.87-.87,1.14l-.11,1.9s.16.81,1.25,1.19h9.33s10.14-.54,11.66-18.55c0,0-5.64-12.73-.94-26.75,0,0,4.77-13.58-6.8-19.41,0,0-20.1-2.86-33.7,1.98l-15.62,1.95s-15.33,1.37-11.35,25.16c0,0,1.45,9.11,8.86,15Z"/>
    </g>
  </g>
  <rect class="cls-2" x="81.63" y="158.99" width="49.78" height="64.57"/>
</svg>