<?xml version="1.0" encoding="UTF-8"?>
<svg id="Layer_1" data-name="Layer 1" xmlns="http://www.w3.org/2000/svg" viewBox="0 0 273 298.17">
  <defs>
    <style>
      .cls-1 {
        fill: #f26822;
      }

      .cls-2 {
        fill: #fff;
      }
    </style>
  </defs>
  <rect class="cls-1" y="15.78" width="273" height="262.73"/>
  <path class="cls-2" d="M85.93,72.29l-15.21,68.25s3.42,7.71,27-8.44c0,0,8.36-2.2,15.21-27.89h53.99s18.25,4.4,16.73,19.82c-1.52,15.41-6.84,18.35-6.84,18.35,0,0-9.89,13.94-29.66,12.48,0,0,10.65-32.29-1.52-22.02l-45.63,29.36,3.04-16.88s3.8-4.4-7.6-2.94c0,0-25.09,6.61-31.94,29.36l-9.89,46.24s-4.56,11.74,7.6,1.47l52.47-32.29,37.26-.73s38.02-2.94,60.08-42.57c0,0,31.94-59.45-39.54-72.66l-85.55,1.1Z"/>
</svg>