<?xml version="1.0" encoding="UTF-8"?>
<svg id="Layer_1" data-name="Layer 1" xmlns="http://www.w3.org/2000/svg" viewBox="0 0 255 255">
  <defs>
    <style>
      .cls-1 {
        stroke: #231f20;
        stroke-miterlimit: 10;
        stroke-width: 2px;
      }

      .cls-1, .cls-2 {
        fill: #532d80;
      }

      .cls-3 {
        fill: #f26822;
      }

      .cls-4 {
        fill: #f26934;
      }

      .cls-5 {
        fill: #fff;
      }
    </style>
  </defs>
  <g>
    <g>
      <rect class="cls-3" width="255" height="255"/>
      <path class="cls-5" d="M25.11,128.25c0,12.93,1.46,25.82,4.79,37.8,3.34,11.98,8.56,23.04,16.08,32.28,19.35,23.78,51.85,36.54,84.63,36.54,58.27,0,105.5-47.9,105.5-107S188.89,20.88,130.62,20.88,25.11,69.15,25.11,128.25Z"/>
      <path class="cls-1" d="M128.14,45.38s-1.76-5.49,2.71,2.71c0,0,2.98,3.73,2.98,8.95,0,0,2.24,5.96,13.42,5.96l11.18.75s5.96,1.49,13.42,10.44c0,0-.85,7.75,11.08,4.76,0,0,5.96-1.49,3.73,10.44,0,0,7.51,2.71,6.76,6.44,0,0-17.1,20.11-18.59,20.11,0,0-4.47,16.4-4.47,20.13l1.49,12.68s3.73,7.46,3.73,19.39-3.73,17.15-3.73,17.15l-8.95,19.39-5.96,11.18s.75,8.95.75,12.68.75,14.91.75,14.91c0,0-26.1,5.22-35.04,2.98,0,0-33.55-.75-61.89-16.4l37.28-63.38.75-27.59s13.27-9.91,15.46-26.06c2.4-17.69,1.88-37.88,5-41,0,0,4.21-19.52,4.13-25.73-.02-1.58.75,1.87,2.16,1.14s-.59-5.4,1.71-2.42"/>
      <g>
        <g>
          <polygon class="cls-4" points="180 130 174 130 169 128 158 122 127 89 126.6 55.62 129.49 42 140 37 145.17 39.24 151 39 168.49 44 175.49 54 180 130"/>
          <g>
            <path class="cls-4" d="M175.04,130.11l11.31,2.42,3.23-4.04s-.81,4.85.81,2.42,3.23-7.27,3.23-7.27l-1.62-10.5,3.23-5.65c5.65-3.23,4.04-11.31,4.04-11.31l-8.89-12.12c-4.85-4.85-6.46-21-6.46-21l-9.69-11.31"/>
            <path class="cls-4" d="M134.65,68.72c-3.23.81-4.04-3.23-4.04-3.23-.81-4.04.81-5.65.81-5.65,1.62-1.62-.81-7.27-.81-7.27-4.04-3.23,0-5.65,0-5.65l4.85-8.08-7.62,4c-2.77.23-4.28,1.1-5.02,2.23-1.64,2.48-1.58,3.21-1.06,4.08.08.13.1.27.07.42l-.73,3.64c-.02.11-.01.22.03.33,2.32,6.24-.06,3.07-.06,3.07l-.72,1.45c-.05.11-.07.23-.06.35l.39,2.6s0,.08,0,.12l-.44,8.59"/>
            <path class="cls-4" d="M135.46,38.83l3.23-4.04s3.89-.81,6.39,4.04l.88,5.65-2.42,10.5"/>
            <path class="cls-4" d="M161.31,42.87l7.27,3.23,5.65,5.65c4.85-15.35,0-16.96,0-16.96-6.46,2.42-12.92,8.08-12.92,8.08-4.85-4.04-16.23-4.04-16.23-4.04"/>
            <path class="cls-4" d="M175.04,130.11s-7.27-1.62-12.12-5.65c0,0-4.85,4.85-9.69-4.85l-7.27-9.69"/>
          </g>
        </g>
        <g>
          <polygon class="cls-2" points="180 130 174 130 169 128 158 122 127 89 126.6 55.62 129.49 42 140 37 145.17 39.24 151 39 168.49 44 175.49 54 180 130"/>
          <g>
            <path class="cls-1" d="M175.04,130.11l11.31,2.42,3.23-4.04s-.81,4.85.81,2.42,3.23-7.27,3.23-7.27l-1.62-10.5,3.23-5.65c5.65-3.23,4.04-11.31,4.04-11.31l-8.89-12.12c-4.85-4.85-6.46-21-6.46-21l-9.69-11.31"/>
            <path class="cls-1" d="M134.65,68.72c-3.23.81-4.04-3.23-4.04-3.23-.81-4.04.81-5.65.81-5.65,1.62-1.62-.81-7.27-.81-7.27-4.04-3.23,0-5.65,0-5.65l4.85-8.08-7.62,4c-2.77.23-4.28,1.1-5.02,2.23-1.64,2.48-1.58,3.21-1.06,4.08.08.13.1.27.07.42l-.73,3.64c-.02.11-.01.22.03.33,2.32,6.24-.06,3.07-.06,3.07l-.72,1.45c-.05.11-.07.23-.06.35l.39,2.6s0,.08,0,.12l-.44,8.59"/>
            <path class="cls-1" d="M135.46,38.83l3.23-4.04s3.89-.81,6.39,4.04l.88,5.65-2.42,10.5"/>
            <path class="cls-1" d="M161.31,42.87l7.27,3.23,5.65,5.65c4.85-15.35,0-16.96,0-16.96-6.46,2.42-12.92,8.08-12.92,8.08-4.85-4.04-16.23-4.04-16.23-4.04"/>
            <path class="cls-1" d="M175.04,130.11s-7.27-1.62-12.12-5.65c0,0-4.85,4.85-9.69-4.85l-7.27-9.69"/>
          </g>
        </g>
      </g>
      <polyline class="cls-4" points="148.83 206.5 140.5 199 133 194 148 194 153 194"/>
      <path class="cls-4" d="M147.35,136.07s-17.24-2.24-29.17,0c0,0-13.94,2.24-17.78,3.73,0,0-42.61,11.93-67.22,7.46l-11.18-2.24-22-1.66v46.53l36.91-.88s35.04.75,60.39-21.62c0,0,15.66-14.91,34.3-14.91,0,0,20.88-2.98,26.84-2.24l14.56-.24-1-7,1-7"/>
      <polyline class="cls-4" points="158.47 242.69 151.47 240.69 118 228 145.47 229.69 158 229"/>
      <path class="cls-5" d="M160.68,149.5l-13.42,14.91,13.42.92-22.37,73.64,8.95-11.93,6.71-10.44,17.89-38.03s3.73-10.44-2.98-29.82l-8.2.75Z"/>
    </g>
    <polygon class="cls-2" points="148 111 144 108 127 92 121 69 124 69 140 71 148 111"/>
  </g>
  <polyline class="cls-4" points="68 221 75 219 107 214 81 208 75 207"/>
  <polyline class="cls-4" points="81.61 197.12 88.61 195.12 127 184 94.61 184.12 88.61 183.12"/>
  <polyline class="cls-4" points="154.79 185.12 152 182 138 173 152 172 159 172"/>
  <path class="cls-4" d="M111,128l4.9-.54c2.72-.3,5.46-.14,8.12.49l11.98,5.05-10-13-10-9"/>
  <polyline class="cls-4" points="117 104 139 110 118 86"/>
</svg>